<?xml version="1.0" encoding="UTF-8" standalone="no"?>
<svg width="259px" height="71px" viewBox="0 0 259 71" version="1.1" xmlns="http://www.w3.org/2000/svg" xmlns:xlink="http://www.w3.org/1999/xlink" xmlns:sketch="http://www.bohemiancoding.com/sketch/ns">
    <!-- Generator: Sketch 3.3.2 (12043) - http://www.bohemiancoding.com/sketch -->
    <title>badcamp-2015-logo</title>
    <desc>Created with Sketch.</desc>
    <defs>
        <linearGradient x1="-73.6046898%" y1="40.446335%" x2="148.790506%" y2="68.1898915%" id="linearGradient-1">
            <stop stop-color="#3023AE" offset="0%"></stop>
            <stop stop-color="#53A0FE" offset="48.6461512%"></stop>
            <stop stop-color="#B4ED50" offset="100%"></stop>
        </linearGradient>
        <linearGradient x1="49.0421868%" y1="-37.5578704%" x2="50.8791567%" y2="157.798032%" id="linearGradient-2">
            <stop stop-color="#3023AE" offset="0%"></stop>
            <stop stop-color="#53A0FE" offset="47.5247532%"></stop>
            <stop stop-color="#B4ED50" offset="100%"></stop>
        </linearGradient>
    </defs>
    <g id="Welcome" stroke="none" stroke-width="1" fill="none" fill-rule="evenodd" sketch:type="MSPage">
        <g id="Homepage---Tablet-Portrait" sketch:type="MSArtboardGroup" transform="translate(-25.000000, -25.000000)">
            <g id="badcamp-2015-logo" sketch:type="MSLayerGroup" transform="translate(23.000000, 24.000000)">
                <g id="Register" sketch:type="MSShapeGroup">
                    <g id="badcamp_icon-copy-+-BADCAMP--Copy">
                        <g id="badcamp_icon-copy">
                            <path d="M37.9217563,9.65043525 C35.9893092,8.14303432 33.3814499,4.6595427 31.2014819,1.66602133 C30.5079239,6.24826141 29.0521044,8.04610824 27.4297076,9.29895688 C23.9901913,11.7954709 21.8784826,12.4874036 18.9471222,13.9397724 C16.4872783,15.0826178 3.06418317,22.4079507 2.16509451,39.6292518 C1.26600586,56.8505528 14.6440253,70.2715834 30.2374031,71.0919258 C45.8311227,71.9122861 59.9634315,60.9424008 60.8869229,43.2536864 C61.8104142,25.5649718 49.547172,16.8883222 47.546461,15.4443374 C44.2316246,13.061185 41.0422765,12.0231882 37.9217563,9.65043525 L37.9217563,9.65043525 L37.9217563,9.65043525 Z" id="Fill-1" fill="url(#linearGradient-1)"></path>
                            <path d="M13.1399096,63.0031862 C13.1399096,63.0031862 8.74071236,58.2100417 8.3901983,54.6238463 C8.03950838,51.0378298 8.64305409,51.3107644 9.30836207,51.3107644 C9.97367004,51.3107644 32.1482563,64.2279979 42.6775776,63.8748621 C48.473552,63.680521 49.5933669,63.6453329 49.5933669,63.6453329 C49.5933669,63.6453329 45.1336391,69.1892256 30.4296467,69.1892256 C20.8825389,69.1892256 13.1399096,63.0031862 13.1399096,63.0031862" id="Fill-2" fill="#FFFFFF"></path>
                            <path d="M8.86265319,50.6612947 C8.39002238,50.6612947 7.76729691,50.9403023 7.76729691,51.9827407 C7.76729691,54.385029 8.41360115,56.3130755 9.59236286,58.3059615 L10.2847688,60.6150095 L11.3704473,60.1675608 C8.55472174,57.0520346 7.81163903,52.0729445 9.21862204,51.7851844 C10.5439591,51.6353208 21.547143,58.5251311 26.3408444,60.3754772 C36.3106102,64.2237108 42.1936853,64.2487181 47.556972,64.2487181 C48.0403364,63.9370226 49.2771653,64.3483889 49.7306164,64.0307992 C51.0116113,63.1335803 51.3021227,61.5754603 51.4435952,61.4057691 C48.9933404,63.3166681 46.9946011,63.3166681 43.4774956,63.3166681 C37.1135196,63.3166681 28.7298649,60.5944675 22.7547623,57.3140735 C16.4972426,53.8784568 10.5875974,50.6612947 8.86265319,50.6612947" id="Fill-4" fill="#0B0B0A"></path>
                            <path d="M51.7431629,19.605598 C51.9253947,20.1267019 48.5910427,15.9544021 48.4145057,16.8923892 C52.6852357,22.4524274 43.685593,35.5175182 32.2695906,39.5223381 C20.7549877,43.5628341 2.8442149,42.8136336 2.91320262,35.7026712 C2.91320262,35.7026712 2.05606279,38.6998032 2.44525764,39.9172539 C3.22332192,42.7325363 8.43287066,45.0756045 14.0124148,45.5889455 C15.0965307,47.7278664 18.457404,53.1428878 24.7587158,53.1417316 C25.5976325,53.1415663 26.4889407,53.0452734 27.4337795,52.8325374 C35.6016647,50.9930657 37.22011,44.2973346 37.5245345,41.1540292 C48.8287574,35.6879712 53.386177,24.721005 51.7431629,19.605598" id="Fill-5" fill="#1A1918"></path>
                            <path d="M59.4865898,37.2087307 C58.6298363,38.9052831 57.6527255,40.2254788 56.6647056,41.4481468 C56.4583037,41.3134658 56.0513061,40.9422891 55.1512662,37.5150675 C55.5056513,39.2473443 55.4308682,42.4957653 54.6605117,44.0247702 C51.4962075,46.8884392 49.264672,47.4482408 46.6820946,47.8669309 C46.2717539,47.9331997 45.3798084,47.8769337 44.4920859,47.3662532 C45.5770605,49.959667 46.5733508,50.9708464 51.1602983,50.9708464 C53.0224919,50.9708464 54.0018899,49.5027518 55.4018343,48.0560916 C55.9031472,47.968924 56.2038643,47.6863439 56.2957157,47.0174043 C58.0377281,44.7453316 58.931609,42.1360204 59.4865898,37.2087307" id="Fill-6" fill="#FFFFFF"></path>
                            <path d="M42.248937,53.6235628 C43.1097374,53.6235628 43.7387975,54.0243907 44.5619424,54.467731 C45.5534818,55.0021678 46.4207928,55.48284 46.4207928,55.883668 C46.4207928,56.0462138 46.3146884,56.3609463 45.911914,56.3609463 C45.1887149,56.3609463 44.3423432,54.9648358 42.3868903,54.9648358 C40.7103353,54.9648358 39.4411297,56.6449549 38.0244689,56.6449549 C37.704924,56.6449549 37.4976421,56.4111386 37.4976421,56.1896475 C37.4976421,55.5191001 38.3466532,55.4206794 39.6758615,54.6029479 C40.536662,54.0735117 41.2581014,53.6235628 42.248937,53.6235628" id="Fill-7" fill="#1A1918"></path>
                            <path d="M9.30836207,54.7762113 C14.8776989,60.906163 19.0463874,63.3418536 25.2468958,65.1134273 C31.3854661,66.867139 36.3148333,66.7528205 45.4380514,64.7822623 C38.5731148,66.8173031 32.4495013,67.8690302 25.0329274,65.8268439 C17.9128476,63.8662883 13.3616202,60.3308216 9.30836207,54.7762113" id="Fill-8" fill="#1A1918"></path>
                            <path d="M13.6201067,55.1191653 L13.1399096,58.9134552 L13.7869176,61.4924008 L13.6201067,55.1191653" id="Fill-9" fill="#1A1918"></path>
                            <path d="M21.7421076,60.193997 L20.8825389,64.1242182 L21.2040193,65.8121967 L21.5128306,64.3905437 L21.7421076,60.193997" id="Fill-10" fill="#1A1918"></path>
                            <path d="M32.4116697,63.3166681 L31.7120494,66.607244 L30.2095197,68.2114485 L30.6471343,66.5207905 L32.4116697,63.3166681" id="Fill-11" fill="#1A1918"></path>
                            <path d="M40.0874339,64.6570479 L39.6487635,66.1149615 L38.5854321,67.3971104 L39.0633418,66.1115676 L40.0874339,64.6570479" id="Fill-12" fill="#1A1918"></path>
                            <path d="M44.1632151,46.8278863 C46.9528984,46.8278863 51.4092829,45.007906 53.8438774,43.0571744 C55.8162221,41.4763692 56.8827208,40.4414329 59.4865898,37.2087307 C57.6916131,40.5711125 55.05396,44.31128 51.8639657,46.2954139 C49.3225632,47.8762192 47.9291292,48.2434662 46.6057276,48.2434662 C46.2340983,48.2434662 44.8672344,47.9975036 44.5980143,47.6425816 C44.4180064,47.4059073 44.2745983,47.1208265 44.1632151,46.8278863" id="Fill-13" fill="#1A1918"></path>
                            <path d="M44.1632151,46.8278863 C44.770104,49.760682 46.603968,52.0545464 49.4434483,52.0545464 C53.1843759,52.0545464 55.8188617,49.3360974 57.0372144,46.7710845 C58.1573817,44.4127373 58.4580983,43.5987566 59.1651094,39.5699358 C58.351994,43.4363891 57.4438602,45.7841975 55.7792705,47.5889949 C54.2464757,49.250716 52.3241033,50.8104439 49.6417561,50.8104439 C47.1876302,50.8104439 45.3122394,49.7108464 44.689338,47.4316289 C44.6230007,47.1887029 44.2862117,47.053486 44.1632151,46.8278863" id="Fill-14" fill="#1A1918"></path>
                            <path d="M56.6647056,41.6685665 C56.1278489,40.6211266 55.7013197,39.6058388 55.1512662,37.5150675 C55.6749259,41.7339421 54.8477338,43.829179 54.3166838,44.3505768 L55.4824246,47.9035484 C55.4824246,47.9035484 55.7034313,48.4663865 56.0755888,49.7676483 C56.0755888,48.2434662 56.0843864,47.3230266 56.5538501,46.6333669 L56.6647056,41.6685665" id="Fill-15" fill="#FFFFFF"></path>
                        </g>
                    </g>
                </g>
                <path d="M95.81,27.758 L94.632,26.542 L93.416,27.758 L94.632,28.936 L95.81,27.758 L95.81,27.758 Z M98.166,30.114 L96.988,28.898 L95.772,30.114 L96.988,31.292 L98.166,30.114 L98.166,30.114 Z M93.416,27.758 L92.276,26.542 L91.06,27.758 L92.276,28.936 L93.416,27.758 L93.416,27.758 Z M95.81,30.114 L94.632,28.898 L93.416,30.114 L94.632,31.292 L95.81,30.114 L95.81,30.114 Z M98.166,32.47 L96.988,31.254 L95.772,32.47 L96.988,33.648 L98.166,32.47 L98.166,32.47 Z M91.06,27.758 L89.92,26.542 L88.704,27.758 L89.92,28.936 L91.06,27.758 L91.06,27.758 Z M93.454,30.114 L92.276,28.898 L91.06,30.114 L92.276,31.292 L93.454,30.114 L93.454,30.114 Z M95.81,32.47 L94.632,31.254 L93.416,32.47 L94.632,33.648 L95.81,32.47 L95.81,32.47 Z M98.166,34.826 L96.988,33.61 L95.772,34.826 L96.988,36.004 L98.166,34.826 L98.166,34.826 Z M88.704,27.758 L87.564,26.542 L86.348,27.758 L87.564,28.936 L88.704,27.758 L88.704,27.758 Z M91.098,30.114 L89.92,28.898 L88.704,30.114 L89.92,31.292 L91.098,30.114 L91.098,30.114 Z M93.454,32.47 L92.276,31.254 L91.06,32.47 L92.276,33.648 L93.454,32.47 L93.454,32.47 Z M95.81,34.826 L94.632,33.61 L93.416,34.826 L94.632,36.004 L95.81,34.826 L95.81,34.826 Z M98.166,37.182 L96.988,35.966 L95.772,37.182 L96.988,38.36 L98.166,37.182 L98.166,37.182 Z M86.386,27.758 L85.246,26.542 L84.03,27.758 L85.246,28.936 L86.386,27.758 L86.386,27.758 Z M88.742,30.114 L87.564,28.898 L86.348,30.114 L87.564,31.292 L88.742,30.114 L88.742,30.114 Z M93.454,34.826 L92.276,33.61 L91.06,34.826 L92.276,36.004 L93.454,34.826 L93.454,34.826 Z M95.81,37.182 L94.632,35.966 L93.416,37.182 L94.632,38.36 L95.81,37.182 L95.81,37.182 Z M98.166,39.538 L96.988,38.322 L95.772,39.538 L96.988,40.716 L98.166,39.538 L98.166,39.538 Z M100.484,41.894 L99.306,40.678 L98.09,41.894 L99.306,43.072 L100.484,41.894 L100.484,41.894 Z M84.03,27.758 L82.89,26.542 L81.674,27.758 L82.89,28.936 L84.03,27.758 L84.03,27.758 Z M86.424,30.114 L85.246,28.898 L84.03,30.114 L85.246,31.292 L86.424,30.114 L86.424,30.114 Z M93.454,37.182 L92.276,35.966 L91.06,37.182 L92.276,38.36 L93.454,37.182 L93.454,37.182 Z M95.81,39.538 L94.632,38.322 L93.416,39.538 L94.632,40.716 L95.81,39.538 L95.81,39.538 Z M98.166,41.894 L96.988,40.678 L95.772,41.894 L96.988,43.072 L98.166,41.894 L98.166,41.894 Z M100.484,44.212 L99.306,42.996 L98.09,44.212 L99.306,45.39 L100.484,44.212 L100.484,44.212 Z M81.674,27.758 L80.534,26.542 L79.318,27.758 L80.534,28.936 L81.674,27.758 L81.674,27.758 Z M84.068,30.114 L82.89,28.898 L81.674,30.114 L82.89,31.292 L84.068,30.114 L84.068,30.114 Z M86.424,32.47 L85.246,31.254 L84.03,32.47 L85.246,33.648 L86.424,32.47 L86.424,32.47 Z M98.166,44.212 L96.988,42.996 L95.772,44.212 L96.988,45.39 L98.166,44.212 L98.166,44.212 Z M91.06,37.182 L89.92,35.966 L88.704,37.182 L89.92,38.36 L91.06,37.182 L91.06,37.182 Z M93.454,39.538 L92.276,38.322 L91.06,39.538 L92.276,40.716 L93.454,39.538 L93.454,39.538 Z M95.81,41.894 L94.632,40.678 L93.416,41.894 L94.632,43.072 L95.81,41.894 L95.81,41.894 Z M100.484,46.568 L99.306,45.352 L98.09,46.568 L99.306,47.746 L100.484,46.568 L100.484,46.568 Z M81.674,30.114 L80.534,28.898 L79.318,30.114 L80.534,31.292 L81.674,30.114 L81.674,30.114 Z M84.068,32.47 L82.89,31.254 L81.674,32.47 L82.89,33.648 L84.068,32.47 L84.068,32.47 Z M86.424,34.826 L85.246,33.61 L84.03,34.826 L85.246,36.004 L86.424,34.826 L86.424,34.826 Z M95.81,44.212 L94.632,42.996 L93.416,44.212 L94.632,45.39 L95.81,44.212 L95.81,44.212 Z M98.166,46.568 L96.988,45.352 L95.772,46.568 L96.988,47.746 L98.166,46.568 L98.166,46.568 Z M88.704,37.182 L87.564,35.966 L86.348,37.182 L87.564,38.36 L88.704,37.182 L88.704,37.182 Z M91.098,39.538 L89.92,38.322 L88.704,39.538 L89.92,40.716 L91.098,39.538 L91.098,39.538 Z M100.484,48.924 L99.306,47.708 L98.09,48.924 L99.306,50.102 L100.484,48.924 L100.484,48.924 Z M81.674,32.47 L80.534,31.254 L79.318,32.47 L80.534,33.648 L81.674,32.47 L81.674,32.47 Z M84.068,34.826 L82.89,33.61 L81.674,34.826 L82.89,36.004 L84.068,34.826 L84.068,34.826 Z M86.424,37.182 L85.246,35.966 L84.03,37.182 L85.246,38.36 L86.424,37.182 L86.424,37.182 Z M95.81,46.568 L94.632,45.352 L93.416,46.568 L94.632,47.746 L95.81,46.568 L95.81,46.568 Z M98.166,48.924 L96.988,47.708 L95.772,48.924 L96.988,50.102 L98.166,48.924 L98.166,48.924 Z M88.704,39.538 L87.564,38.322 L86.348,39.538 L87.564,40.716 L88.704,39.538 L88.704,39.538 Z M81.674,34.826 L80.534,33.61 L79.318,34.826 L80.534,36.004 L81.674,34.826 L81.674,34.826 Z M84.068,37.182 L82.89,35.966 L81.674,37.182 L82.89,38.36 L84.068,37.182 L84.068,37.182 Z M86.424,39.538 L85.246,38.322 L84.03,39.538 L85.246,40.716 L86.424,39.538 L86.424,39.538 Z M95.81,48.924 L94.632,47.708 L93.416,48.924 L94.632,50.102 L95.81,48.924 L95.81,48.924 Z M98.166,51.28 L96.988,50.064 L95.772,51.28 L96.988,52.458 L98.166,51.28 L98.166,51.28 Z M81.674,37.182 L80.534,35.966 L79.318,37.182 L80.534,38.36 L81.674,37.182 L81.674,37.182 Z M84.068,39.538 L82.89,38.322 L81.674,39.538 L82.89,40.716 L84.068,39.538 L84.068,39.538 Z M86.424,41.894 L85.246,40.678 L84.03,41.894 L85.246,43.072 L86.424,41.894 L86.424,41.894 Z M93.454,48.924 L92.276,47.708 L91.06,48.924 L92.276,50.102 L93.454,48.924 L93.454,48.924 Z M95.81,51.28 L94.632,50.064 L93.416,51.28 L94.632,52.458 L95.81,51.28 L95.81,51.28 Z M86.386,44.212 L85.246,42.996 L84.03,44.212 L85.246,45.39 L86.386,44.212 L86.386,44.212 Z M81.674,39.538 L80.534,38.322 L79.318,39.538 L80.534,40.716 L81.674,39.538 L81.674,39.538 Z M84.068,41.894 L82.89,40.678 L81.674,41.894 L82.89,43.072 L84.068,41.894 L84.068,41.894 Z M91.098,48.924 L89.92,47.708 L88.704,48.924 L89.92,50.102 L91.098,48.924 L91.098,48.924 Z M93.454,51.28 L92.276,50.064 L91.06,51.28 L92.276,52.458 L93.454,51.28 L93.454,51.28 Z M84.03,44.212 L82.89,42.996 L81.674,44.212 L82.89,45.39 L84.03,44.212 L84.03,44.212 Z M86.424,46.568 L85.246,45.352 L84.03,46.568 L85.246,47.746 L86.424,46.568 L86.424,46.568 Z M81.674,41.894 L80.534,40.678 L79.318,41.894 L80.534,43.072 L81.674,41.894 L81.674,41.894 Z M88.742,48.924 L87.564,47.708 L86.348,48.924 L87.564,50.102 L88.742,48.924 L88.742,48.924 Z M91.098,51.28 L89.92,50.064 L88.704,51.28 L89.92,52.458 L91.098,51.28 L91.098,51.28 Z M81.674,44.212 L80.534,42.996 L79.318,44.212 L80.534,45.39 L81.674,44.212 L81.674,44.212 Z M84.068,46.568 L82.89,45.352 L81.674,46.568 L82.89,47.746 L84.068,46.568 L84.068,46.568 Z M86.424,48.924 L85.246,47.708 L84.03,48.924 L85.246,50.102 L86.424,48.924 L86.424,48.924 Z M88.742,51.28 L87.564,50.064 L86.348,51.28 L87.564,52.458 L88.742,51.28 L88.742,51.28 Z M81.674,46.568 L80.534,45.352 L79.318,46.568 L80.534,47.746 L81.674,46.568 L81.674,46.568 Z M84.068,48.924 L82.89,47.708 L81.674,48.924 L82.89,50.102 L84.068,48.924 L84.068,48.924 Z M86.424,51.28 L85.246,50.064 L84.03,51.28 L85.246,52.458 L86.424,51.28 L86.424,51.28 Z M81.674,48.924 L80.534,47.708 L79.318,48.924 L80.534,50.102 L81.674,48.924 L81.674,48.924 Z M84.068,51.28 L82.89,50.064 L81.674,51.28 L82.89,52.458 L84.068,51.28 L84.068,51.28 Z M81.674,51.28 L80.534,50.064 L79.318,51.28 L80.534,52.458 L81.674,51.28 L81.674,51.28 Z M124.006,27.758 L122.828,26.542 L121.612,27.758 L122.828,28.936 L124.006,27.758 L124.006,27.758 Z M126.324,30.114 L125.146,28.898 L123.93,30.114 L125.146,31.292 L126.324,30.114 L126.324,30.114 Z M121.612,27.758 L120.472,26.542 L119.256,27.758 L120.472,28.936 L121.612,27.758 L121.612,27.758 Z M124.006,30.114 L122.828,28.898 L121.612,30.114 L122.828,31.292 L124.006,30.114 L124.006,30.114 Z M126.324,32.47 L125.146,31.254 L123.93,32.47 L125.146,33.648 L126.324,32.47 L126.324,32.47 Z M119.256,27.758 L118.116,26.542 L116.9,27.758 L118.116,28.936 L119.256,27.758 L119.256,27.758 Z M121.65,30.114 L120.472,28.898 L119.256,30.114 L120.472,31.292 L121.65,30.114 L121.65,30.114 Z M124.006,32.47 L122.828,31.254 L121.612,32.47 L122.828,33.648 L124.006,32.47 L124.006,32.47 Z M126.324,34.826 L125.146,33.61 L123.93,34.826 L125.146,36.004 L126.324,34.826 L126.324,34.826 Z M116.9,27.758 L115.76,26.542 L114.544,27.758 L115.76,28.936 L116.9,27.758 L116.9,27.758 Z M119.294,30.114 L118.116,28.898 L116.9,30.114 L118.116,31.292 L119.294,30.114 L119.294,30.114 Z M121.65,32.47 L120.472,31.254 L119.256,32.47 L120.472,33.648 L121.65,32.47 L121.65,32.47 Z M124.006,34.826 L122.828,33.61 L121.612,34.826 L122.828,36.004 L124.006,34.826 L124.006,34.826 Z M126.324,37.182 L125.146,35.966 L123.93,37.182 L125.146,38.36 L126.324,37.182 L126.324,37.182 Z M114.544,27.758 L113.404,26.542 L112.188,27.758 L113.404,28.936 L114.544,27.758 L114.544,27.758 Z M116.938,30.114 L115.76,28.898 L114.544,30.114 L115.76,31.292 L116.938,30.114 L116.938,30.114 Z M121.65,34.826 L120.472,33.61 L119.256,34.826 L120.472,36.004 L121.65,34.826 L121.65,34.826 Z M124.006,37.182 L122.828,35.966 L121.612,37.182 L122.828,38.36 L124.006,37.182 L124.006,37.182 Z M126.324,39.538 L125.146,38.322 L123.93,39.538 L125.146,40.716 L126.324,39.538 L126.324,39.538 Z M112.226,27.758 L111.086,26.542 L109.87,27.758 L111.086,28.936 L112.226,27.758 L112.226,27.758 Z M114.582,30.114 L113.404,28.898 L112.188,30.114 L113.404,31.292 L114.582,30.114 L114.582,30.114 Z M121.65,37.182 L120.472,35.966 L119.256,37.182 L120.472,38.36 L121.65,37.182 L121.65,37.182 Z M124.006,39.538 L122.828,38.322 L121.612,39.538 L122.828,40.716 L124.006,39.538 L124.006,39.538 Z M126.324,41.894 L125.146,40.678 L123.93,41.894 L125.146,43.072 L126.324,41.894 L126.324,41.894 Z M109.87,27.758 L108.73,26.542 L107.514,27.758 L108.73,28.936 L109.87,27.758 L109.87,27.758 Z M112.264,30.114 L111.086,28.898 L109.87,30.114 L111.086,31.292 L112.264,30.114 L112.264,30.114 Z M121.65,39.538 L120.472,38.322 L119.256,39.538 L120.472,40.716 L121.65,39.538 L121.65,39.538 Z M124.006,41.894 L122.828,40.678 L121.612,41.894 L122.828,43.072 L124.006,41.894 L124.006,41.894 Z M126.324,44.212 L125.146,42.996 L123.93,44.212 L125.146,45.39 L126.324,44.212 L126.324,44.212 Z M109.87,30.114 L108.73,28.898 L107.514,30.114 L108.73,31.292 L109.87,30.114 L109.87,30.114 Z M112.264,32.47 L111.086,31.254 L109.87,32.47 L111.086,33.648 L112.264,32.47 L112.264,32.47 Z M124.006,44.212 L122.828,42.996 L121.612,44.212 L122.828,45.39 L124.006,44.212 L124.006,44.212 Z M119.256,39.538 L118.116,38.322 L116.9,39.538 L118.116,40.716 L119.256,39.538 L119.256,39.538 Z M121.65,41.894 L120.472,40.678 L119.256,41.894 L120.472,43.072 L121.65,41.894 L121.65,41.894 Z M126.324,46.568 L125.146,45.352 L123.93,46.568 L125.146,47.746 L126.324,46.568 L126.324,46.568 Z M107.514,30.114 L106.374,28.898 L105.158,30.114 L106.374,31.292 L107.514,30.114 L107.514,30.114 Z M109.908,32.47 L108.73,31.254 L107.514,32.47 L108.73,33.648 L109.908,32.47 L109.908,32.47 Z M112.264,34.826 L111.086,33.61 L109.87,34.826 L111.086,36.004 L112.264,34.826 L112.264,34.826 Z M121.65,44.212 L120.472,42.996 L119.256,44.212 L120.472,45.39 L121.65,44.212 L121.65,44.212 Z M124.006,46.568 L122.828,45.352 L121.612,46.568 L122.828,47.746 L124.006,46.568 L124.006,46.568 Z M116.9,39.538 L115.76,38.322 L114.544,39.538 L115.76,40.716 L116.9,39.538 L116.9,39.538 Z M119.294,41.894 L118.116,40.678 L116.9,41.894 L118.116,43.072 L119.294,41.894 L119.294,41.894 Z M126.324,48.924 L125.146,47.708 L123.93,48.924 L125.146,50.102 L126.324,48.924 L126.324,48.924 Z M107.514,32.47 L106.374,31.254 L105.158,32.47 L106.374,33.648 L107.514,32.47 L107.514,32.47 Z M109.908,34.826 L108.73,33.61 L107.514,34.826 L108.73,36.004 L109.908,34.826 L109.908,34.826 Z M112.264,37.182 L111.086,35.966 L109.87,37.182 L111.086,38.36 L112.264,37.182 L112.264,37.182 Z M121.65,46.568 L120.472,45.352 L119.256,46.568 L120.472,47.746 L121.65,46.568 L121.65,46.568 Z M124.006,48.924 L122.828,47.708 L121.612,48.924 L122.828,50.102 L124.006,48.924 L124.006,48.924 Z M114.544,39.538 L113.404,38.322 L112.188,39.538 L113.404,40.716 L114.544,39.538 L114.544,39.538 Z M116.938,41.894 L115.76,40.678 L114.544,41.894 L115.76,43.072 L116.938,41.894 L116.938,41.894 Z M126.324,51.28 L125.146,50.064 L123.93,51.28 L125.146,52.458 L126.324,51.28 L126.324,51.28 Z M107.514,34.826 L106.374,33.61 L105.158,34.826 L106.374,36.004 L107.514,34.826 L107.514,34.826 Z M109.908,37.182 L108.73,35.966 L107.514,37.182 L108.73,38.36 L109.908,37.182 L109.908,37.182 Z M112.264,39.538 L111.086,38.322 L109.87,39.538 L111.086,40.716 L112.264,39.538 L112.264,39.538 Z M121.65,48.924 L120.472,47.708 L119.256,48.924 L120.472,50.102 L121.65,48.924 L121.65,48.924 Z M124.006,51.28 L122.828,50.064 L121.612,51.28 L122.828,52.458 L124.006,51.28 L124.006,51.28 Z M114.544,41.894 L113.404,40.678 L112.188,41.894 L113.404,43.072 L114.544,41.894 L114.544,41.894 Z M107.514,37.182 L106.374,35.966 L105.158,37.182 L106.374,38.36 L107.514,37.182 L107.514,37.182 Z M109.908,39.538 L108.73,38.322 L107.514,39.538 L108.73,40.716 L109.908,39.538 L109.908,39.538 Z M112.264,41.894 L111.086,40.678 L109.87,41.894 L111.086,43.072 L112.264,41.894 L112.264,41.894 Z M121.65,51.28 L120.472,50.064 L119.256,51.28 L120.472,52.458 L121.65,51.28 L121.65,51.28 Z M112.226,44.212 L111.086,42.996 L109.87,44.212 L111.086,45.39 L112.226,44.212 L112.226,44.212 Z M107.514,39.538 L106.374,38.322 L105.158,39.538 L106.374,40.716 L107.514,39.538 L107.514,39.538 Z M109.908,41.894 L108.73,40.678 L107.514,41.894 L108.73,43.072 L109.908,41.894 L109.908,41.894 Z M109.908,44.212 L108.73,42.996 L107.514,44.212 L108.73,45.39 L109.908,44.212 L109.908,44.212 Z M112.264,46.568 L111.086,45.352 L109.87,46.568 L111.086,47.746 L112.264,46.568 L112.264,46.568 Z M107.514,41.894 L106.374,40.678 L105.158,41.894 L106.374,43.072 L107.514,41.894 L107.514,41.894 Z M107.552,44.212 L106.374,42.996 L105.158,44.212 L106.374,45.39 L107.552,44.212 L107.552,44.212 Z M109.908,46.568 L108.73,45.352 L107.514,46.568 L108.73,47.746 L109.908,46.568 L109.908,46.568 Z M112.264,48.924 L111.086,47.708 L109.87,48.924 L111.086,50.102 L112.264,48.924 L112.264,48.924 Z M107.514,46.568 L106.374,45.352 L105.158,46.568 L106.374,47.746 L107.514,46.568 L107.514,46.568 Z M109.908,48.924 L108.73,47.708 L107.514,48.924 L108.73,50.102 L109.908,48.924 L109.908,48.924 Z M112.264,51.28 L111.086,50.064 L109.87,51.28 L111.086,52.458 L112.264,51.28 L112.264,51.28 Z M107.514,48.924 L106.374,47.708 L105.158,48.924 L106.374,50.102 L107.514,48.924 L107.514,48.924 Z M109.908,51.28 L108.73,50.064 L107.514,51.28 L108.73,52.458 L109.908,51.28 L109.908,51.28 Z M107.514,51.28 L106.374,50.064 L105.158,51.28 L106.374,52.458 L107.514,51.28 L107.514,51.28 Z M149.846,27.758 L148.668,26.542 L147.452,27.758 L148.668,28.936 L149.846,27.758 L149.846,27.758 Z M152.164,30.114 L150.986,28.898 L149.77,30.114 L150.986,31.292 L152.164,30.114 L152.164,30.114 Z M147.452,27.758 L146.312,26.542 L145.096,27.758 L146.312,28.936 L147.452,27.758 L147.452,27.758 Z M149.846,30.114 L148.668,28.898 L147.452,30.114 L148.668,31.292 L149.846,30.114 L149.846,30.114 Z M152.164,32.47 L150.986,31.254 L149.77,32.47 L150.986,33.648 L152.164,32.47 L152.164,32.47 Z M145.096,27.758 L143.956,26.542 L142.74,27.758 L143.956,28.936 L145.096,27.758 L145.096,27.758 Z M147.49,30.114 L146.312,28.898 L145.096,30.114 L146.312,31.292 L147.49,30.114 L147.49,30.114 Z M149.846,32.47 L148.668,31.254 L147.452,32.47 L148.668,33.648 L149.846,32.47 L149.846,32.47 Z M152.164,34.826 L150.986,33.61 L149.77,34.826 L150.986,36.004 L152.164,34.826 L152.164,34.826 Z M142.74,27.758 L141.6,26.542 L140.384,27.758 L141.6,28.936 L142.74,27.758 L142.74,27.758 Z M145.134,30.114 L143.956,28.898 L142.74,30.114 L143.956,31.292 L145.134,30.114 L145.134,30.114 Z M147.49,32.47 L146.312,31.254 L145.096,32.47 L146.312,33.648 L147.49,32.47 L147.49,32.47 Z M149.846,34.826 L148.668,33.61 L147.452,34.826 L148.668,36.004 L149.846,34.826 L149.846,34.826 Z M152.164,37.182 L150.986,35.966 L149.77,37.182 L150.986,38.36 L152.164,37.182 L152.164,37.182 Z M140.384,27.758 L139.244,26.542 L138.028,27.758 L139.244,28.936 L140.384,27.758 L140.384,27.758 Z M142.778,30.114 L141.6,28.898 L140.384,30.114 L141.6,31.292 L142.778,30.114 L142.778,30.114 Z M147.49,34.826 L146.312,33.61 L145.096,34.826 L146.312,36.004 L147.49,34.826 L147.49,34.826 Z M149.846,37.182 L148.668,35.966 L147.452,37.182 L148.668,38.36 L149.846,37.182 L149.846,37.182 Z M152.164,39.538 L150.986,38.322 L149.77,39.538 L150.986,40.716 L152.164,39.538 L152.164,39.538 Z M138.066,27.758 L136.926,26.542 L135.71,27.758 L136.926,28.936 L138.066,27.758 L138.066,27.758 Z M140.422,30.114 L139.244,28.898 L138.028,30.114 L139.244,31.292 L140.422,30.114 L140.422,30.114 Z M147.49,37.182 L146.312,35.966 L145.096,37.182 L146.312,38.36 L147.49,37.182 L147.49,37.182 Z M149.846,39.538 L148.668,38.322 L147.452,39.538 L148.668,40.716 L149.846,39.538 L149.846,39.538 Z M152.164,41.894 L150.986,40.678 L149.77,41.894 L150.986,43.072 L152.164,41.894 L152.164,41.894 Z M135.71,27.758 L134.57,26.542 L133.354,27.758 L134.57,28.936 L135.71,27.758 L135.71,27.758 Z M138.104,30.114 L136.926,28.898 L135.71,30.114 L136.926,31.292 L138.104,30.114 L138.104,30.114 Z M147.49,39.538 L146.312,38.322 L145.096,39.538 L146.312,40.716 L147.49,39.538 L147.49,39.538 Z M149.846,41.894 L148.668,40.678 L147.452,41.894 L148.668,43.072 L149.846,41.894 L149.846,41.894 Z M152.164,44.212 L150.986,42.996 L149.77,44.212 L150.986,45.39 L152.164,44.212 L152.164,44.212 Z M133.354,27.758 L132.214,26.542 L130.998,27.758 L132.214,28.936 L133.354,27.758 L133.354,27.758 Z M135.748,30.114 L134.57,28.898 L133.354,30.114 L134.57,31.292 L135.748,30.114 L135.748,30.114 Z M138.104,32.47 L136.926,31.254 L135.71,32.47 L136.926,33.648 L138.104,32.47 L138.104,32.47 Z M149.846,44.212 L148.668,42.996 L147.452,44.212 L148.668,45.39 L149.846,44.212 L149.846,44.212 Z M147.452,41.894 L146.312,40.678 L145.096,41.894 L146.312,43.072 L147.452,41.894 L147.452,41.894 Z M152.164,46.568 L150.986,45.352 L149.77,46.568 L150.986,47.746 L152.164,46.568 L152.164,46.568 Z M133.354,30.114 L132.214,28.898 L130.998,30.114 L132.214,31.292 L133.354,30.114 L133.354,30.114 Z M135.748,32.47 L134.57,31.254 L133.354,32.47 L134.57,33.648 L135.748,32.47 L135.748,32.47 Z M138.104,34.826 L136.926,33.61 L135.71,34.826 L136.926,36.004 L138.104,34.826 L138.104,34.826 Z M147.49,44.212 L146.312,42.996 L145.096,44.212 L146.312,45.39 L147.49,44.212 L147.49,44.212 Z M149.846,46.568 L148.668,45.352 L147.452,46.568 L148.668,47.746 L149.846,46.568 L149.846,46.568 Z M152.164,48.924 L150.986,47.708 L149.77,48.924 L150.986,50.102 L152.164,48.924 L152.164,48.924 Z M133.354,32.47 L132.214,31.254 L130.998,32.47 L132.214,33.648 L133.354,32.47 L133.354,32.47 Z M135.748,34.826 L134.57,33.61 L133.354,34.826 L134.57,36.004 L135.748,34.826 L135.748,34.826 Z M138.104,37.182 L136.926,35.966 L135.71,37.182 L136.926,38.36 L138.104,37.182 L138.104,37.182 Z M147.49,46.568 L146.312,45.352 L145.096,46.568 L146.312,47.746 L147.49,46.568 L147.49,46.568 Z M149.846,48.924 L148.668,47.708 L147.452,48.924 L148.668,50.102 L149.846,48.924 L149.846,48.924 Z M133.354,34.826 L132.214,33.61 L130.998,34.826 L132.214,36.004 L133.354,34.826 L133.354,34.826 Z M135.748,37.182 L134.57,35.966 L133.354,37.182 L134.57,38.36 L135.748,37.182 L135.748,37.182 Z M138.104,39.538 L136.926,38.322 L135.71,39.538 L136.926,40.716 L138.104,39.538 L138.104,39.538 Z M147.49,48.924 L146.312,47.708 L145.096,48.924 L146.312,50.102 L147.49,48.924 L147.49,48.924 Z M149.846,51.28 L148.668,50.064 L147.452,51.28 L148.668,52.458 L149.846,51.28 L149.846,51.28 Z M133.354,37.182 L132.214,35.966 L130.998,37.182 L132.214,38.36 L133.354,37.182 L133.354,37.182 Z M135.748,39.538 L134.57,38.322 L133.354,39.538 L134.57,40.716 L135.748,39.538 L135.748,39.538 Z M138.104,41.894 L136.926,40.678 L135.71,41.894 L136.926,43.072 L138.104,41.894 L138.104,41.894 Z M145.134,48.924 L143.956,47.708 L142.74,48.924 L143.956,50.102 L145.134,48.924 L145.134,48.924 Z M147.49,51.28 L146.312,50.064 L145.096,51.28 L146.312,52.458 L147.49,51.28 L147.49,51.28 Z M138.066,44.212 L136.926,42.996 L135.71,44.212 L136.926,45.39 L138.066,44.212 L138.066,44.212 Z M133.354,39.538 L132.214,38.322 L130.998,39.538 L132.214,40.716 L133.354,39.538 L133.354,39.538 Z M135.748,41.894 L134.57,40.678 L133.354,41.894 L134.57,43.072 L135.748,41.894 L135.748,41.894 Z M142.778,48.924 L141.6,47.708 L140.384,48.924 L141.6,50.102 L142.778,48.924 L142.778,48.924 Z M145.134,51.28 L143.956,50.064 L142.74,51.28 L143.956,52.458 L145.134,51.28 L145.134,51.28 Z M135.71,44.212 L134.57,42.996 L133.354,44.212 L134.57,45.39 L135.71,44.212 L135.71,44.212 Z M138.104,46.568 L136.926,45.352 L135.71,46.568 L136.926,47.746 L138.104,46.568 L138.104,46.568 Z M133.354,41.894 L132.214,40.678 L130.998,41.894 L132.214,43.072 L133.354,41.894 L133.354,41.894 Z M140.422,48.924 L139.244,47.708 L138.028,48.924 L139.244,50.102 L140.422,48.924 L140.422,48.924 Z M142.778,51.28 L141.6,50.064 L140.384,51.28 L141.6,52.458 L142.778,51.28 L142.778,51.28 Z M133.354,44.212 L132.214,42.996 L130.998,44.212 L132.214,45.39 L133.354,44.212 L133.354,44.212 Z M135.748,46.568 L134.57,45.352 L133.354,46.568 L134.57,47.746 L135.748,46.568 L135.748,46.568 Z M138.104,48.924 L136.926,47.708 L135.71,48.924 L136.926,50.102 L138.104,48.924 L138.104,48.924 Z M140.422,51.28 L139.244,50.064 L138.028,51.28 L139.244,52.458 L140.422,51.28 L140.422,51.28 Z M133.354,46.568 L132.214,45.352 L130.998,46.568 L132.214,47.746 L133.354,46.568 L133.354,46.568 Z M135.748,48.924 L134.57,47.708 L133.354,48.924 L134.57,50.102 L135.748,48.924 L135.748,48.924 Z M138.104,51.28 L136.926,50.064 L135.71,51.28 L136.926,52.458 L138.104,51.28 L138.104,51.28 Z M133.354,48.924 L132.214,47.708 L130.998,48.924 L132.214,50.102 L133.354,48.924 L133.354,48.924 Z M135.748,51.28 L134.57,50.064 L133.354,51.28 L134.57,52.458 L135.748,51.28 L135.748,51.28 Z M133.354,51.28 L132.214,50.064 L130.998,51.28 L132.214,52.458 L133.354,51.28 L133.354,51.28 Z M175.686,27.758 L174.508,26.542 L173.292,27.758 L174.508,28.936 L175.686,27.758 L175.686,27.758 Z M178.004,30.114 L176.826,28.898 L175.61,30.114 L176.826,31.292 L178.004,30.114 L178.004,30.114 Z M173.292,27.758 L172.152,26.542 L170.936,27.758 L172.152,28.936 L173.292,27.758 L173.292,27.758 Z M175.686,30.114 L174.508,28.898 L173.292,30.114 L174.508,31.292 L175.686,30.114 L175.686,30.114 Z M178.004,32.47 L176.826,31.254 L175.61,32.47 L176.826,33.648 L178.004,32.47 L178.004,32.47 Z M170.936,27.758 L169.796,26.542 L168.58,27.758 L169.796,28.936 L170.936,27.758 L170.936,27.758 Z M173.33,30.114 L172.152,28.898 L170.936,30.114 L172.152,31.292 L173.33,30.114 L173.33,30.114 Z M175.686,32.47 L174.508,31.254 L173.292,32.47 L174.508,33.648 L175.686,32.47 L175.686,32.47 Z M168.58,27.758 L167.44,26.542 L166.224,27.758 L167.44,28.936 L168.58,27.758 L168.58,27.758 Z M170.974,30.114 L169.796,28.898 L168.58,30.114 L169.796,31.292 L170.974,30.114 L170.974,30.114 Z M173.33,32.47 L172.152,31.254 L170.936,32.47 L172.152,33.648 L173.33,32.47 L173.33,32.47 Z M166.224,27.758 L165.084,26.542 L163.868,27.758 L165.084,28.936 L166.224,27.758 L166.224,27.758 Z M168.618,30.114 L167.44,28.898 L166.224,30.114 L167.44,31.292 L168.618,30.114 L168.618,30.114 Z M163.906,27.758 L162.766,26.542 L161.55,27.758 L162.766,28.936 L163.906,27.758 L163.906,27.758 Z M166.262,30.114 L165.084,28.898 L163.868,30.114 L165.084,31.292 L166.262,30.114 L166.262,30.114 Z M161.55,27.758 L160.41,26.542 L159.194,27.758 L160.41,28.936 L161.55,27.758 L161.55,27.758 Z M163.944,30.114 L162.766,28.898 L161.55,30.114 L162.766,31.292 L163.944,30.114 L163.944,30.114 Z M161.55,30.114 L160.41,28.898 L159.194,30.114 L160.41,31.292 L161.55,30.114 L161.55,30.114 Z M163.944,32.47 L162.766,31.254 L161.55,32.47 L162.766,33.648 L163.944,32.47 L163.944,32.47 Z M178.004,46.568 L176.826,45.352 L175.61,46.568 L176.826,47.746 L178.004,46.568 L178.004,46.568 Z M159.194,30.114 L158.054,28.898 L156.838,30.114 L158.054,31.292 L159.194,30.114 L159.194,30.114 Z M161.588,32.47 L160.41,31.254 L159.194,32.47 L160.41,33.648 L161.588,32.47 L161.588,32.47 Z M163.944,34.826 L162.766,33.61 L161.55,34.826 L162.766,36.004 L163.944,34.826 L163.944,34.826 Z M175.686,46.568 L174.508,45.352 L173.292,46.568 L174.508,47.746 L175.686,46.568 L175.686,46.568 Z M178.004,48.924 L176.826,47.708 L175.61,48.924 L176.826,50.102 L178.004,48.924 L178.004,48.924 Z M159.194,32.47 L158.054,31.254 L156.838,32.47 L158.054,33.648 L159.194,32.47 L159.194,32.47 Z M161.588,34.826 L160.41,33.61 L159.194,34.826 L160.41,36.004 L161.588,34.826 L161.588,34.826 Z M163.944,37.182 L162.766,35.966 L161.55,37.182 L162.766,38.36 L163.944,37.182 L163.944,37.182 Z M173.33,46.568 L172.152,45.352 L170.936,46.568 L172.152,47.746 L173.33,46.568 L173.33,46.568 Z M175.686,48.924 L174.508,47.708 L173.292,48.924 L174.508,50.102 L175.686,48.924 L175.686,48.924 Z M159.194,34.826 L158.054,33.61 L156.838,34.826 L158.054,36.004 L159.194,34.826 L159.194,34.826 Z M161.588,37.182 L160.41,35.966 L159.194,37.182 L160.41,38.36 L161.588,37.182 L161.588,37.182 Z M163.944,39.538 L162.766,38.322 L161.55,39.538 L162.766,40.716 L163.944,39.538 L163.944,39.538 Z M173.33,48.924 L172.152,47.708 L170.936,48.924 L172.152,50.102 L173.33,48.924 L173.33,48.924 Z M175.686,51.28 L174.508,50.064 L173.292,51.28 L174.508,52.458 L175.686,51.28 L175.686,51.28 Z M159.194,37.182 L158.054,35.966 L156.838,37.182 L158.054,38.36 L159.194,37.182 L159.194,37.182 Z M161.588,39.538 L160.41,38.322 L159.194,39.538 L160.41,40.716 L161.588,39.538 L161.588,39.538 Z M163.944,41.894 L162.766,40.678 L161.55,41.894 L162.766,43.072 L163.944,41.894 L163.944,41.894 Z M170.974,48.924 L169.796,47.708 L168.58,48.924 L169.796,50.102 L170.974,48.924 L170.974,48.924 Z M173.33,51.28 L172.152,50.064 L170.936,51.28 L172.152,52.458 L173.33,51.28 L173.33,51.28 Z M163.906,44.212 L162.766,42.996 L161.55,44.212 L162.766,45.39 L163.906,44.212 L163.906,44.212 Z M159.194,39.538 L158.054,38.322 L156.838,39.538 L158.054,40.716 L159.194,39.538 L159.194,39.538 Z M161.588,41.894 L160.41,40.678 L159.194,41.894 L160.41,43.072 L161.588,41.894 L161.588,41.894 Z M168.618,48.924 L167.44,47.708 L166.224,48.924 L167.44,50.102 L168.618,48.924 L168.618,48.924 Z M170.974,51.28 L169.796,50.064 L168.58,51.28 L169.796,52.458 L170.974,51.28 L170.974,51.28 Z M161.55,44.212 L160.41,42.996 L159.194,44.212 L160.41,45.39 L161.55,44.212 L161.55,44.212 Z M163.944,46.568 L162.766,45.352 L161.55,46.568 L162.766,47.746 L163.944,46.568 L163.944,46.568 Z M159.194,41.894 L158.054,40.678 L156.838,41.894 L158.054,43.072 L159.194,41.894 L159.194,41.894 Z M166.262,48.924 L165.084,47.708 L163.868,48.924 L165.084,50.102 L166.262,48.924 L166.262,48.924 Z M168.618,51.28 L167.44,50.064 L166.224,51.28 L167.44,52.458 L168.618,51.28 L168.618,51.28 Z M159.194,44.212 L158.054,42.996 L156.838,44.212 L158.054,45.39 L159.194,44.212 L159.194,44.212 Z M161.588,46.568 L160.41,45.352 L159.194,46.568 L160.41,47.746 L161.588,46.568 L161.588,46.568 Z M163.944,48.924 L162.766,47.708 L161.55,48.924 L162.766,50.102 L163.944,48.924 L163.944,48.924 Z M166.262,51.28 L165.084,50.064 L163.868,51.28 L165.084,52.458 L166.262,51.28 L166.262,51.28 Z M159.194,46.568 L158.054,45.352 L156.838,46.568 L158.054,47.746 L159.194,46.568 L159.194,46.568 Z M161.588,48.924 L160.41,47.708 L159.194,48.924 L160.41,50.102 L161.588,48.924 L161.588,48.924 Z M163.944,51.28 L162.766,50.064 L161.55,51.28 L162.766,52.458 L163.944,51.28 L163.944,51.28 Z M159.194,48.924 L158.054,47.708 L156.838,48.924 L158.054,50.102 L159.194,48.924 L159.194,48.924 Z M161.588,51.28 L160.41,50.064 L159.194,51.28 L160.41,52.458 L161.588,51.28 L161.588,51.28 Z M201.526,27.758 L200.348,26.542 L199.132,27.758 L200.348,28.936 L201.526,27.758 L201.526,27.758 Z M203.844,30.114 L202.666,28.898 L201.45,30.114 L202.666,31.292 L203.844,30.114 L203.844,30.114 Z M199.132,27.758 L197.992,26.542 L196.776,27.758 L197.992,28.936 L199.132,27.758 L199.132,27.758 Z M201.526,30.114 L200.348,28.898 L199.132,30.114 L200.348,31.292 L201.526,30.114 L201.526,30.114 Z M203.844,32.47 L202.666,31.254 L201.45,32.47 L202.666,33.648 L203.844,32.47 L203.844,32.47 Z M196.776,27.758 L195.636,26.542 L194.42,27.758 L195.636,28.936 L196.776,27.758 L196.776,27.758 Z M199.17,30.114 L197.992,28.898 L196.776,30.114 L197.992,31.292 L199.17,30.114 L199.17,30.114 Z M201.526,32.47 L200.348,31.254 L199.132,32.47 L200.348,33.648 L201.526,32.47 L201.526,32.47 Z M203.844,34.826 L202.666,33.61 L201.45,34.826 L202.666,36.004 L203.844,34.826 L203.844,34.826 Z M194.42,27.758 L193.28,26.542 L192.064,27.758 L193.28,28.936 L194.42,27.758 L194.42,27.758 Z M196.814,30.114 L195.636,28.898 L194.42,30.114 L195.636,31.292 L196.814,30.114 L196.814,30.114 Z M199.17,32.47 L197.992,31.254 L196.776,32.47 L197.992,33.648 L199.17,32.47 L199.17,32.47 Z M201.526,34.826 L200.348,33.61 L199.132,34.826 L200.348,36.004 L201.526,34.826 L201.526,34.826 Z M203.844,37.182 L202.666,35.966 L201.45,37.182 L202.666,38.36 L203.844,37.182 L203.844,37.182 Z M192.064,27.758 L190.924,26.542 L189.708,27.758 L190.924,28.936 L192.064,27.758 L192.064,27.758 Z M194.458,30.114 L193.28,28.898 L192.064,30.114 L193.28,31.292 L194.458,30.114 L194.458,30.114 Z M199.17,34.826 L197.992,33.61 L196.776,34.826 L197.992,36.004 L199.17,34.826 L199.17,34.826 Z M201.526,37.182 L200.348,35.966 L199.132,37.182 L200.348,38.36 L201.526,37.182 L201.526,37.182 Z M203.844,39.538 L202.666,38.322 L201.45,39.538 L202.666,40.716 L203.844,39.538 L203.844,39.538 Z M189.746,27.758 L188.606,26.542 L187.39,27.758 L188.606,28.936 L189.746,27.758 L189.746,27.758 Z M192.102,30.114 L190.924,28.898 L189.708,30.114 L190.924,31.292 L192.102,30.114 L192.102,30.114 Z M199.17,37.182 L197.992,35.966 L196.776,37.182 L197.992,38.36 L199.17,37.182 L199.17,37.182 Z M201.526,39.538 L200.348,38.322 L199.132,39.538 L200.348,40.716 L201.526,39.538 L201.526,39.538 Z M203.844,41.894 L202.666,40.678 L201.45,41.894 L202.666,43.072 L203.844,41.894 L203.844,41.894 Z M187.39,27.758 L186.25,26.542 L185.034,27.758 L186.25,28.936 L187.39,27.758 L187.39,27.758 Z M189.784,30.114 L188.606,28.898 L187.39,30.114 L188.606,31.292 L189.784,30.114 L189.784,30.114 Z M199.17,39.538 L197.992,38.322 L196.776,39.538 L197.992,40.716 L199.17,39.538 L199.17,39.538 Z M201.526,41.894 L200.348,40.678 L199.132,41.894 L200.348,43.072 L201.526,41.894 L201.526,41.894 Z M203.844,44.212 L202.666,42.996 L201.45,44.212 L202.666,45.39 L203.844,44.212 L203.844,44.212 Z M187.39,30.114 L186.25,28.898 L185.034,30.114 L186.25,31.292 L187.39,30.114 L187.39,30.114 Z M189.784,32.47 L188.606,31.254 L187.39,32.47 L188.606,33.648 L189.784,32.47 L189.784,32.47 Z M201.526,44.212 L200.348,42.996 L199.132,44.212 L200.348,45.39 L201.526,44.212 L201.526,44.212 Z M196.776,39.538 L195.636,38.322 L194.42,39.538 L195.636,40.716 L196.776,39.538 L196.776,39.538 Z M199.17,41.894 L197.992,40.678 L196.776,41.894 L197.992,43.072 L199.17,41.894 L199.17,41.894 Z M203.844,46.568 L202.666,45.352 L201.45,46.568 L202.666,47.746 L203.844,46.568 L203.844,46.568 Z M185.034,30.114 L183.894,28.898 L182.678,30.114 L183.894,31.292 L185.034,30.114 L185.034,30.114 Z M187.428,32.47 L186.25,31.254 L185.034,32.47 L186.25,33.648 L187.428,32.47 L187.428,32.47 Z M189.784,34.826 L188.606,33.61 L187.39,34.826 L188.606,36.004 L189.784,34.826 L189.784,34.826 Z M199.17,44.212 L197.992,42.996 L196.776,44.212 L197.992,45.39 L199.17,44.212 L199.17,44.212 Z M201.526,46.568 L200.348,45.352 L199.132,46.568 L200.348,47.746 L201.526,46.568 L201.526,46.568 Z M194.42,39.538 L193.28,38.322 L192.064,39.538 L193.28,40.716 L194.42,39.538 L194.42,39.538 Z M196.814,41.894 L195.636,40.678 L194.42,41.894 L195.636,43.072 L196.814,41.894 L196.814,41.894 Z M203.844,48.924 L202.666,47.708 L201.45,48.924 L202.666,50.102 L203.844,48.924 L203.844,48.924 Z M185.034,32.47 L183.894,31.254 L182.678,32.47 L183.894,33.648 L185.034,32.47 L185.034,32.47 Z M187.428,34.826 L186.25,33.61 L185.034,34.826 L186.25,36.004 L187.428,34.826 L187.428,34.826 Z M189.784,37.182 L188.606,35.966 L187.39,37.182 L188.606,38.36 L189.784,37.182 L189.784,37.182 Z M199.17,46.568 L197.992,45.352 L196.776,46.568 L197.992,47.746 L199.17,46.568 L199.17,46.568 Z M201.526,48.924 L200.348,47.708 L199.132,48.924 L200.348,50.102 L201.526,48.924 L201.526,48.924 Z M192.064,39.538 L190.924,38.322 L189.708,39.538 L190.924,40.716 L192.064,39.538 L192.064,39.538 Z M194.458,41.894 L193.28,40.678 L192.064,41.894 L193.28,43.072 L194.458,41.894 L194.458,41.894 Z M203.844,51.28 L202.666,50.064 L201.45,51.28 L202.666,52.458 L203.844,51.28 L203.844,51.28 Z M185.034,34.826 L183.894,33.61 L182.678,34.826 L183.894,36.004 L185.034,34.826 L185.034,34.826 Z M187.428,37.182 L186.25,35.966 L185.034,37.182 L186.25,38.36 L187.428,37.182 L187.428,37.182 Z M189.784,39.538 L188.606,38.322 L187.39,39.538 L188.606,40.716 L189.784,39.538 L189.784,39.538 Z M199.17,48.924 L197.992,47.708 L196.776,48.924 L197.992,50.102 L199.17,48.924 L199.17,48.924 Z M201.526,51.28 L200.348,50.064 L199.132,51.28 L200.348,52.458 L201.526,51.28 L201.526,51.28 Z M192.064,41.894 L190.924,40.678 L189.708,41.894 L190.924,43.072 L192.064,41.894 L192.064,41.894 Z M185.034,37.182 L183.894,35.966 L182.678,37.182 L183.894,38.36 L185.034,37.182 L185.034,37.182 Z M187.428,39.538 L186.25,38.322 L185.034,39.538 L186.25,40.716 L187.428,39.538 L187.428,39.538 Z M189.784,41.894 L188.606,40.678 L187.39,41.894 L188.606,43.072 L189.784,41.894 L189.784,41.894 Z M199.17,51.28 L197.992,50.064 L196.776,51.28 L197.992,52.458 L199.17,51.28 L199.17,51.28 Z M189.746,44.212 L188.606,42.996 L187.39,44.212 L188.606,45.39 L189.746,44.212 L189.746,44.212 Z M185.034,39.538 L183.894,38.322 L182.678,39.538 L183.894,40.716 L185.034,39.538 L185.034,39.538 Z M187.428,41.894 L186.25,40.678 L185.034,41.894 L186.25,43.072 L187.428,41.894 L187.428,41.894 Z M187.428,44.212 L186.25,42.996 L185.034,44.212 L186.25,45.39 L187.428,44.212 L187.428,44.212 Z M189.784,46.568 L188.606,45.352 L187.39,46.568 L188.606,47.746 L189.784,46.568 L189.784,46.568 Z M185.034,41.894 L183.894,40.678 L182.678,41.894 L183.894,43.072 L185.034,41.894 L185.034,41.894 Z M185.072,44.212 L183.894,42.996 L182.678,44.212 L183.894,45.39 L185.072,44.212 L185.072,44.212 Z M187.428,46.568 L186.25,45.352 L185.034,46.568 L186.25,47.746 L187.428,46.568 L187.428,46.568 Z M189.784,48.924 L188.606,47.708 L187.39,48.924 L188.606,50.102 L189.784,48.924 L189.784,48.924 Z M185.034,46.568 L183.894,45.352 L182.678,46.568 L183.894,47.746 L185.034,46.568 L185.034,46.568 Z M187.428,48.924 L186.25,47.708 L185.034,48.924 L186.25,50.102 L187.428,48.924 L187.428,48.924 Z M189.784,51.28 L188.606,50.064 L187.39,51.28 L188.606,52.458 L189.784,51.28 L189.784,51.28 Z M185.034,48.924 L183.894,47.708 L182.678,48.924 L183.894,50.102 L185.034,48.924 L185.034,48.924 Z M187.428,51.28 L186.25,50.064 L185.034,51.28 L186.25,52.458 L187.428,51.28 L187.428,51.28 Z M185.034,51.28 L183.894,50.064 L182.678,51.28 L183.894,52.458 L185.034,51.28 L185.034,51.28 Z M234.396,27.758 L233.218,26.542 L232.002,27.758 L233.218,28.936 L234.396,27.758 L234.396,27.758 Z M232.002,27.758 L230.862,26.542 L229.646,27.758 L230.862,28.936 L232.002,27.758 L232.002,27.758 Z M234.396,30.114 L233.218,28.898 L232.002,30.114 L233.218,31.292 L234.396,30.114 L234.396,30.114 Z M229.646,27.758 L228.506,26.542 L227.29,27.758 L228.506,28.936 L229.646,27.758 L229.646,27.758 Z M232.04,30.114 L230.862,28.898 L229.646,30.114 L230.862,31.292 L232.04,30.114 L232.04,30.114 Z M234.396,32.47 L233.218,31.254 L232.002,32.47 L233.218,33.648 L234.396,32.47 L234.396,32.47 Z M229.646,30.114 L228.506,28.898 L227.29,30.114 L228.506,31.292 L229.646,30.114 L229.646,30.114 Z M232.04,32.47 L230.862,31.254 L229.646,32.47 L230.862,33.648 L232.04,32.47 L232.04,32.47 Z M234.396,34.826 L233.218,33.61 L232.002,34.826 L233.218,36.004 L234.396,34.826 L234.396,34.826 Z M227.328,30.114 L226.188,28.898 L224.972,30.114 L226.188,31.292 L227.328,30.114 L227.328,30.114 Z M229.684,32.47 L228.506,31.254 L227.29,32.47 L228.506,33.648 L229.684,32.47 L229.684,32.47 Z M232.04,34.826 L230.862,33.61 L229.646,34.826 L230.862,36.004 L232.04,34.826 L232.04,34.826 Z M234.396,37.182 L233.218,35.966 L232.002,37.182 L233.218,38.36 L234.396,37.182 L234.396,37.182 Z M227.328,32.47 L226.188,31.254 L224.972,32.47 L226.188,33.648 L227.328,32.47 L227.328,32.47 Z M229.684,34.826 L228.506,33.61 L227.29,34.826 L228.506,36.004 L229.684,34.826 L229.684,34.826 Z M232.04,37.182 L230.862,35.966 L229.646,37.182 L230.862,38.36 L232.04,37.182 L232.04,37.182 Z M234.396,39.538 L233.218,38.322 L232.002,39.538 L233.218,40.716 L234.396,39.538 L234.396,39.538 Z M224.972,32.47 L223.832,31.254 L222.616,32.47 L223.832,33.648 L224.972,32.47 L224.972,32.47 Z M227.366,34.826 L226.188,33.61 L224.972,34.826 L226.188,36.004 L227.366,34.826 L227.366,34.826 Z M229.684,37.182 L228.506,35.966 L227.29,37.182 L228.506,38.36 L229.684,37.182 L229.684,37.182 Z M232.04,39.538 L230.862,38.322 L229.646,39.538 L230.862,40.716 L232.04,39.538 L232.04,39.538 Z M234.396,41.894 L233.218,40.678 L232.002,41.894 L233.218,43.072 L234.396,41.894 L234.396,41.894 Z M224.972,34.826 L223.832,33.61 L222.616,34.826 L223.832,36.004 L224.972,34.826 L224.972,34.826 Z M234.396,44.212 L233.218,42.996 L232.002,44.212 L233.218,45.39 L234.396,44.212 L234.396,44.212 Z M229.646,39.538 L228.506,38.322 L227.29,39.538 L228.506,40.716 L229.646,39.538 L229.646,39.538 Z M232.04,41.894 L230.862,40.678 L229.646,41.894 L230.862,43.072 L232.04,41.894 L232.04,41.894 Z M215.586,27.758 L214.446,26.542 L213.23,27.758 L214.446,28.936 L215.586,27.758 L215.586,27.758 Z M217.942,30.114 L216.764,28.898 L215.548,30.114 L216.764,31.292 L217.942,30.114 L217.942,30.114 Z M220.298,32.47 L219.12,31.254 L217.904,32.47 L219.12,33.648 L220.298,32.47 L220.298,32.47 Z M222.654,34.826 L221.476,33.61 L220.26,34.826 L221.476,36.004 L222.654,34.826 L222.654,34.826 Z M225.01,37.182 L223.832,35.966 L222.616,37.182 L223.832,38.36 L225.01,37.182 L225.01,37.182 Z M232.04,44.212 L230.862,42.996 L229.646,44.212 L230.862,45.39 L232.04,44.212 L232.04,44.212 Z M234.396,46.568 L233.218,45.352 L232.002,46.568 L233.218,47.746 L234.396,46.568 L234.396,46.568 Z M229.646,41.894 L228.506,40.678 L227.29,41.894 L228.506,43.072 L229.646,41.894 L229.646,41.894 Z M213.23,27.758 L212.09,26.542 L210.874,27.758 L212.09,28.936 L213.23,27.758 L213.23,27.758 Z M215.624,30.114 L214.446,28.898 L213.23,30.114 L214.446,31.292 L215.624,30.114 L215.624,30.114 Z M217.942,32.47 L216.764,31.254 L215.548,32.47 L216.764,33.648 L217.942,32.47 L217.942,32.47 Z M220.298,34.826 L219.12,33.61 L217.904,34.826 L219.12,36.004 L220.298,34.826 L220.298,34.826 Z M222.654,37.182 L221.476,35.966 L220.26,37.182 L221.476,38.36 L222.654,37.182 L222.654,37.182 Z M229.684,44.212 L228.506,42.996 L227.29,44.212 L228.506,45.39 L229.684,44.212 L229.684,44.212 Z M232.04,46.568 L230.862,45.352 L229.646,46.568 L230.862,47.746 L232.04,46.568 L232.04,46.568 Z M234.396,48.924 L233.218,47.708 L232.002,48.924 L233.218,50.102 L234.396,48.924 L234.396,48.924 Z M210.874,27.758 L209.734,26.542 L208.518,27.758 L209.734,28.936 L210.874,27.758 L210.874,27.758 Z M213.268,30.114 L212.09,28.898 L210.874,30.114 L212.09,31.292 L213.268,30.114 L213.268,30.114 Z M215.624,32.47 L214.446,31.254 L213.23,32.47 L214.446,33.648 L215.624,32.47 L215.624,32.47 Z M217.942,34.826 L216.764,33.61 L215.548,34.826 L216.764,36.004 L217.942,34.826 L217.942,34.826 Z M220.298,37.182 L219.12,35.966 L217.904,37.182 L219.12,38.36 L220.298,37.182 L220.298,37.182 Z M222.654,39.538 L221.476,38.322 L220.26,39.538 L221.476,40.716 L222.654,39.538 L222.654,39.538 Z M229.684,46.568 L228.506,45.352 L227.29,46.568 L228.506,47.746 L229.684,46.568 L229.684,46.568 Z M232.04,48.924 L230.862,47.708 L229.646,48.924 L230.862,50.102 L232.04,48.924 L232.04,48.924 Z M234.396,51.28 L233.218,50.064 L232.002,51.28 L233.218,52.458 L234.396,51.28 L234.396,51.28 Z M210.874,30.114 L209.734,28.898 L208.518,30.114 L209.734,31.292 L210.874,30.114 L210.874,30.114 Z M213.268,32.47 L212.09,31.254 L210.874,32.47 L212.09,33.648 L213.268,32.47 L213.268,32.47 Z M215.624,34.826 L214.446,33.61 L213.23,34.826 L214.446,36.004 L215.624,34.826 L215.624,34.826 Z M229.684,48.924 L228.506,47.708 L227.29,48.924 L228.506,50.102 L229.684,48.924 L229.684,48.924 Z M232.04,51.28 L230.862,50.064 L229.646,51.28 L230.862,52.458 L232.04,51.28 L232.04,51.28 Z M210.874,32.47 L209.734,31.254 L208.518,32.47 L209.734,33.648 L210.874,32.47 L210.874,32.47 Z M213.268,34.826 L212.09,33.61 L210.874,34.826 L212.09,36.004 L213.268,34.826 L213.268,34.826 Z M215.624,37.182 L214.446,35.966 L213.23,37.182 L214.446,38.36 L215.624,37.182 L215.624,37.182 Z M229.684,51.28 L228.506,50.064 L227.29,51.28 L228.506,52.458 L229.684,51.28 L229.684,51.28 Z M210.874,34.826 L209.734,33.61 L208.518,34.826 L209.734,36.004 L210.874,34.826 L210.874,34.826 Z M213.268,37.182 L212.09,35.966 L210.874,37.182 L212.09,38.36 L213.268,37.182 L213.268,37.182 Z M215.624,39.538 L214.446,38.322 L213.23,39.538 L214.446,40.716 L215.624,39.538 L215.624,39.538 Z M210.874,37.182 L209.734,35.966 L208.518,37.182 L209.734,38.36 L210.874,37.182 L210.874,37.182 Z M213.268,39.538 L212.09,38.322 L210.874,39.538 L212.09,40.716 L213.268,39.538 L213.268,39.538 Z M215.624,41.894 L214.446,40.678 L213.23,41.894 L214.446,43.072 L215.624,41.894 L215.624,41.894 Z M215.624,44.212 L214.446,42.996 L213.23,44.212 L214.446,45.39 L215.624,44.212 L215.624,44.212 Z M210.874,39.538 L209.734,38.322 L208.518,39.538 L209.734,40.716 L210.874,39.538 L210.874,39.538 Z M213.268,41.894 L212.09,40.678 L210.874,41.894 L212.09,43.072 L213.268,41.894 L213.268,41.894 Z M213.268,44.212 L212.09,42.996 L210.874,44.212 L212.09,45.39 L213.268,44.212 L213.268,44.212 Z M215.624,46.568 L214.446,45.352 L213.23,46.568 L214.446,47.746 L215.624,46.568 L215.624,46.568 Z M210.874,41.894 L209.734,40.678 L208.518,41.894 L209.734,43.072 L210.874,41.894 L210.874,41.894 Z M210.912,44.212 L209.734,42.996 L208.518,44.212 L209.734,45.39 L210.912,44.212 L210.912,44.212 Z M213.268,46.568 L212.09,45.352 L210.874,46.568 L212.09,47.746 L213.268,46.568 L213.268,46.568 Z M215.624,48.924 L214.446,47.708 L213.23,48.924 L214.446,50.102 L215.624,48.924 L215.624,48.924 Z M210.874,46.568 L209.734,45.352 L208.518,46.568 L209.734,47.746 L210.874,46.568 L210.874,46.568 Z M213.268,48.924 L212.09,47.708 L210.874,48.924 L212.09,50.102 L213.268,48.924 L213.268,48.924 Z M215.624,51.28 L214.446,50.064 L213.23,51.28 L214.446,52.458 L215.624,51.28 L215.624,51.28 Z M210.874,48.924 L209.734,47.708 L208.518,48.924 L209.734,50.102 L210.874,48.924 L210.874,48.924 Z M213.268,51.28 L212.09,50.064 L210.874,51.28 L212.09,52.458 L213.268,51.28 L213.268,51.28 Z M210.874,51.28 L209.734,50.064 L208.518,51.28 L209.734,52.458 L210.874,51.28 L210.874,51.28 Z M257.88,27.758 L256.702,26.542 L255.486,27.758 L256.702,28.936 L257.88,27.758 L257.88,27.758 Z M260.198,30.114 L259.02,28.898 L257.804,30.114 L259.02,31.292 L260.198,30.114 L260.198,30.114 Z M255.486,27.758 L254.346,26.542 L253.13,27.758 L254.346,28.936 L255.486,27.758 L255.486,27.758 Z M257.88,30.114 L256.702,28.898 L255.486,30.114 L256.702,31.292 L257.88,30.114 L257.88,30.114 Z M260.198,32.47 L259.02,31.254 L257.804,32.47 L259.02,33.648 L260.198,32.47 L260.198,32.47 Z M253.13,27.758 L251.99,26.542 L250.774,27.758 L251.99,28.936 L253.13,27.758 L253.13,27.758 Z M255.524,30.114 L254.346,28.898 L253.13,30.114 L254.346,31.292 L255.524,30.114 L255.524,30.114 Z M257.88,32.47 L256.702,31.254 L255.486,32.47 L256.702,33.648 L257.88,32.47 L257.88,32.47 Z M260.198,34.826 L259.02,33.61 L257.804,34.826 L259.02,36.004 L260.198,34.826 L260.198,34.826 Z M250.774,27.758 L249.634,26.542 L248.418,27.758 L249.634,28.936 L250.774,27.758 L250.774,27.758 Z M253.168,30.114 L251.99,28.898 L250.774,30.114 L251.99,31.292 L253.168,30.114 L253.168,30.114 Z M255.524,32.47 L254.346,31.254 L253.13,32.47 L254.346,33.648 L255.524,32.47 L255.524,32.47 Z M257.88,34.826 L256.702,33.61 L255.486,34.826 L256.702,36.004 L257.88,34.826 L257.88,34.826 Z M260.198,37.182 L259.02,35.966 L257.804,37.182 L259.02,38.36 L260.198,37.182 L260.198,37.182 Z M248.418,27.758 L247.278,26.542 L246.062,27.758 L247.278,28.936 L248.418,27.758 L248.418,27.758 Z M250.812,30.114 L249.634,28.898 L248.418,30.114 L249.634,31.292 L250.812,30.114 L250.812,30.114 Z M255.524,34.826 L254.346,33.61 L253.13,34.826 L254.346,36.004 L255.524,34.826 L255.524,34.826 Z M257.88,37.182 L256.702,35.966 L255.486,37.182 L256.702,38.36 L257.88,37.182 L257.88,37.182 Z M260.198,39.538 L259.02,38.322 L257.804,39.538 L259.02,40.716 L260.198,39.538 L260.198,39.538 Z M246.1,27.758 L244.96,26.542 L243.744,27.758 L244.96,28.936 L246.1,27.758 L246.1,27.758 Z M248.456,30.114 L247.278,28.898 L246.062,30.114 L247.278,31.292 L248.456,30.114 L248.456,30.114 Z M255.524,37.182 L254.346,35.966 L253.13,37.182 L254.346,38.36 L255.524,37.182 L255.524,37.182 Z M257.88,39.538 L256.702,38.322 L255.486,39.538 L256.702,40.716 L257.88,39.538 L257.88,39.538 Z M243.744,27.758 L242.604,26.542 L241.388,27.758 L242.604,28.936 L243.744,27.758 L243.744,27.758 Z M246.138,30.114 L244.96,28.898 L243.744,30.114 L244.96,31.292 L246.138,30.114 L246.138,30.114 Z M255.524,39.538 L254.346,38.322 L253.13,39.538 L254.346,40.716 L255.524,39.538 L255.524,39.538 Z M257.88,41.894 L256.702,40.678 L255.486,41.894 L256.702,43.072 L257.88,41.894 L257.88,41.894 Z M241.388,27.758 L240.248,26.542 L239.032,27.758 L240.248,28.936 L241.388,27.758 L241.388,27.758 Z M243.782,30.114 L242.604,28.898 L241.388,30.114 L242.604,31.292 L243.782,30.114 L243.782,30.114 Z M246.138,32.47 L244.96,31.254 L243.744,32.47 L244.96,33.648 L246.138,32.47 L246.138,32.47 Z M253.168,39.538 L251.99,38.322 L250.774,39.538 L251.99,40.716 L253.168,39.538 L253.168,39.538 Z M255.524,41.894 L254.346,40.678 L253.13,41.894 L254.346,43.072 L255.524,41.894 L255.524,41.894 Z M241.388,30.114 L240.248,28.898 L239.032,30.114 L240.248,31.292 L241.388,30.114 L241.388,30.114 Z M243.782,32.47 L242.604,31.254 L241.388,32.47 L242.604,33.648 L243.782,32.47 L243.782,32.47 Z M246.138,34.826 L244.96,33.61 L243.744,34.826 L244.96,36.004 L246.138,34.826 L246.138,34.826 Z M250.812,39.538 L249.634,38.322 L248.418,39.538 L249.634,40.716 L250.812,39.538 L250.812,39.538 Z M253.168,41.894 L251.99,40.678 L250.774,41.894 L251.99,43.072 L253.168,41.894 L253.168,41.894 Z M241.388,32.47 L240.248,31.254 L239.032,32.47 L240.248,33.648 L241.388,32.47 L241.388,32.47 Z M243.782,34.826 L242.604,33.61 L241.388,34.826 L242.604,36.004 L243.782,34.826 L243.782,34.826 Z M246.138,37.182 L244.96,35.966 L243.744,37.182 L244.96,38.36 L246.138,37.182 L246.138,37.182 Z M248.456,39.538 L247.278,38.322 L246.062,39.538 L247.278,40.716 L248.456,39.538 L248.456,39.538 Z M250.812,41.894 L249.634,40.678 L248.418,41.894 L249.634,43.072 L250.812,41.894 L250.812,41.894 Z M241.388,34.826 L240.248,33.61 L239.032,34.826 L240.248,36.004 L241.388,34.826 L241.388,34.826 Z M243.782,37.182 L242.604,35.966 L241.388,37.182 L242.604,38.36 L243.782,37.182 L243.782,37.182 Z M246.138,39.538 L244.96,38.322 L243.744,39.538 L244.96,40.716 L246.138,39.538 L246.138,39.538 Z M248.456,41.894 L247.278,40.678 L246.062,41.894 L247.278,43.072 L248.456,41.894 L248.456,41.894 Z M241.388,37.182 L240.248,35.966 L239.032,37.182 L240.248,38.36 L241.388,37.182 L241.388,37.182 Z M243.782,39.538 L242.604,38.322 L241.388,39.538 L242.604,40.716 L243.782,39.538 L243.782,39.538 Z M246.138,41.894 L244.96,40.678 L243.744,41.894 L244.96,43.072 L246.138,41.894 L246.138,41.894 Z M246.138,44.212 L244.96,42.996 L243.744,44.212 L244.96,45.39 L246.138,44.212 L246.138,44.212 Z M241.388,39.538 L240.248,38.322 L239.032,39.538 L240.248,40.716 L241.388,39.538 L241.388,39.538 Z M243.782,41.894 L242.604,40.678 L241.388,41.894 L242.604,43.072 L243.782,41.894 L243.782,41.894 Z M243.782,44.212 L242.604,42.996 L241.388,44.212 L242.604,45.39 L243.782,44.212 L243.782,44.212 Z M246.138,46.568 L244.96,45.352 L243.744,46.568 L244.96,47.746 L246.138,46.568 L246.138,46.568 Z M241.388,41.894 L240.248,40.678 L239.032,41.894 L240.248,43.072 L241.388,41.894 L241.388,41.894 Z M241.426,44.212 L240.248,42.996 L239.032,44.212 L240.248,45.39 L241.426,44.212 L241.426,44.212 Z M243.782,46.568 L242.604,45.352 L241.388,46.568 L242.604,47.746 L243.782,46.568 L243.782,46.568 Z M246.138,48.924 L244.96,47.708 L243.744,48.924 L244.96,50.102 L246.138,48.924 L246.138,48.924 Z M241.388,46.568 L240.248,45.352 L239.032,46.568 L240.248,47.746 L241.388,46.568 L241.388,46.568 Z M243.782,48.924 L242.604,47.708 L241.388,48.924 L242.604,50.102 L243.782,48.924 L243.782,48.924 Z M246.138,51.28 L244.96,50.064 L243.744,51.28 L244.96,52.458 L246.138,51.28 L246.138,51.28 Z M241.388,48.924 L240.248,47.708 L239.032,48.924 L240.248,50.102 L241.388,48.924 L241.388,48.924 Z M243.782,51.28 L242.604,50.064 L241.388,51.28 L242.604,52.458 L243.782,51.28 L243.782,51.28 Z M241.388,51.28 L240.248,50.064 L239.032,51.28 L240.248,52.458 L241.388,51.28 L241.388,51.28 Z" id="BADCAMP--Copy" fill="url(#linearGradient-2)" sketch:type="MSShapeGroup"></path>
            </g>
        </g>
    </g>
</svg>