<?xml version="1.0" encoding="UTF-8" standalone="no"?>
<svg width="26px" height="21px" viewBox="0 0 26 21" version="1.1" xmlns="http://www.w3.org/2000/svg" xmlns:xlink="http://www.w3.org/1999/xlink" xmlns:sketch="http://www.bohemiancoding.com/sketch/ns">
    <!-- Generator: Sketch 3.3.3 (12081) - http://www.bohemiancoding.com/sketch -->
    <title>TwitterIcon</title>
    <desc>Created with Sketch.</desc>
    <defs>
        <linearGradient x1="0.25781251%" y1="49.7500002%" x2="101.257813%" y2="49.7500002%" id="linearGradient-1">
            <stop stop-color="#3023AE" offset="0%"></stop>
            <stop stop-color="#53A0FE" offset="47.5247532%"></stop>
            <stop stop-color="#B4ED50" offset="100%"></stop>
        </linearGradient>
    </defs>
    <g id="Welcome" stroke="none" stroke-width="1" fill="none" fill-rule="evenodd" sketch:type="MSPage">
        <g id="Homepage---Side-Nav" sketch:type="MSArtboardGroup" transform="translate(-279.000000, -3557.000000)" fill="url(#linearGradient-1)">
            <g id="Follow" sketch:type="MSLayerGroup" transform="translate(199.000000, 3508.000000)">
                <path d="M105.92,51.42445 C104.96636,51.83605 103.94144,52.11325 102.86576,52.2382 C103.96304,51.59875 104.80652,50.5855 105.20288,49.378 C104.1758,49.9702 103.03748,50.4007 101.8268,50.63275 C100.85696,49.6279 99.47456,49 97.94528,49 C95.00768,49 92.62736,51.31525 92.62736,54.1702 C92.62736,54.5755 92.6738,54.9703 92.76452,55.3483 C88.34516,55.13305 84.42692,53.074 81.8036,49.94605 C81.34676,50.71045 81.08432,51.5977 81.08432,52.54585 C81.08432,54.33925 82.02284,55.9216 83.44952,56.84875 C82.57796,56.8225 81.75824,56.5894 81.04112,56.20195 L81.04112,56.26705 C81.04112,58.77235 82.87388,60.86185 85.30604,61.33645 C84.86,61.4551 84.3902,61.5181 83.90528,61.5181 C83.56292,61.5181 83.2292,61.48555 82.9052,61.4257 C83.58128,63.4795 85.5458,64.9747 87.87212,65.01565 C86.05232,66.4027 83.75948,67.22905 81.26792,67.22905 C80.83916,67.22905 80.4158,67.2049 80,67.1566 C82.35332,68.62345 85.14836,69.48025 88.15184,69.48025 C97.93232,69.48025 103.28156,61.6021 103.28156,54.76975 C103.28156,54.54505 103.27616,54.32245 103.26644,54.1009 C104.3054,53.3722 105.20612,52.4608 105.92,51.42445" id="TwitterIcon" sketch:type="MSShapeGroup"></path>
            </g>
        </g>
    </g>
</svg>